# xmcd CD database file
#
# Track frame offsets:
#	150
#	19867
#	49367
#	71587
#	92560
#	122352
#	157005
#	177200
#	204050
#	219382
#	243075
#
# Disc length: 3354 seconds
#
# Revision: 1
# Processed by: cddbd v1.5.2PL0 Copyright (c) Steve Scherf et al.
# Submitted via: CDex 1.51
#
DISCID=8a0d180b
DTITLE=Esther Kaiser - The moment we met
DYEAR=2006
DGENRE=Jazz
TTITLE0=Throw It Away
TTITLE1=Black Is The Colour Of My True Love´s Hair
TTITLE2=Dream Ghost
TTITLE3=7 Hours
TTITLE4=Waltz
TTITLE5=Eleanor Rigby
TTITLE6=Over The Rainbow
TTITLE7=Sounds From Your Heart (Elm)
TTITLE8=Secret Lullaby
TTITLE9=Bye Bye Blackbird
TTITLE10=Epilog: Winter Has Passed
EXTD=YEAR: 2006
EXTT0=
EXTT1=
EXTT2=
EXTT3=
EXTT4=
EXTT5=
EXTT6=
EXTT7=
EXTT8=
EXTT9=
EXTT10=
PLAYORDER=
